<svg xmlns="http://www.w3.org/2000/svg" width="588" height="135" fill="none" viewBox="0 0 588 135">
  <path fill="#BFACA0" d="M41.688 131.687h-28.28L.92 3.193h21.67l3.856 85.54.735 13.217h.918L32.69 3.193h21.486L41.688 131.687ZM80.768 3.193v128.494H59.282V3.193h21.486Zm45.927 128.494H98.414L85.926 3.193h21.67l3.856 85.54.735 13.217h.918l4.591-98.757h21.486l-12.487 128.494ZM165.774 3.193v128.494h-21.486V3.193h21.486Zm59.884 27.718v72.874c0 18.907-10.835 27.902-27.18 27.902H173.32V3.193h25.158c16.345 0 27.18 8.628 27.18 27.718Zm-21.67-3.12c0-5.14-1.653-7.343-5.51-7.343h-3.672v93.8h3.672c3.857 0 5.51-2.203 5.51-7.526V27.791Zm86.974-2.754c0-5.14-1.469-7.342-4.591-7.342s-4.591 2.203-4.591 7.342v84.439c0 5.323 1.469 7.526 4.591 7.526s4.591-2.203 4.591-7.526V84.144h21.67v22.395c0 18.906-10.468 27.901-26.261 27.901-15.609 0-26.077-8.995-26.077-27.901V28.158c0-19.09 10.468-27.718 26.077-27.718 15.793 0 26.261 8.627 26.261 27.718v22.21h-21.67v-25.33Zm80.134 3.121v78.381c0 18.356-9.916 27.901-26.077 27.901-16.344 0-26.261-9.545-26.261-27.901V28.158c0-18.173 9.917-27.718 26.261-27.718s26.077 9.362 26.077 27.718Zm-21.486-3.12c0-5.14-1.469-7.343-4.591-7.343-3.306 0-4.591 2.203-4.591 7.342v84.439c0 5.323 1.285 7.526 4.591 7.526 3.122 0 4.591-2.203 4.591-7.526V25.037Zm27.796-21.845h21.486v111.055h15.61v17.439h-37.096V3.193Zm93.402 24.965v78.381c0 18.356-9.917 27.901-26.077 27.901-16.344 0-26.261-9.545-26.261-27.901V28.158C418.47 9.985 428.387.44 444.731.44s26.077 9.362 26.077 27.718Zm-21.486-3.12c0-5.14-1.469-7.343-4.591-7.343-3.306 0-4.591 2.203-4.591 7.342v84.439c0 5.323 1.285 7.526 4.591 7.526 3.122 0 4.591-2.203 4.591-7.526V25.037Zm27.796-21.845h25.159c16.344 0 27.179 10.096 27.179 29.187v16.704c0 11.013-4.775 18.54-13.222 21.477v.734c8.631 2.753 13.222 10.463 13.222 21.477v20.742c0 7.342.183 11.564 1.469 17.438v.735h-21.67c-1.102-6.609-1.469-10.831-1.469-18.173V87.081c0-5.14-1.653-7.342-5.509-7.342h-3.673v51.948h-21.486V3.193Zm21.486 17.255V62.3h3.673c3.856 0 5.509-2.203 5.509-7.526V27.791c0-5.14-1.653-7.343-5.509-7.343h-3.673Zm89.132 24.414H566.25V25.037c0-5.323-1.469-7.342-4.407-7.342-3.122 0-4.591 2.019-4.591 7.342v12.666c0 8.444 5.693 15.236 12.304 22.211 8.447 8.81 18.364 19.274 18.364 35.794v10.831c0 18.539-10.1 27.901-26.261 27.901-16.16 0-26.261-9.362-26.261-27.901V89.651h21.67v19.825c0 5.69 1.469 7.526 4.591 7.526s4.775-1.836 4.775-7.526V96.81c0-8.811-7.529-16.888-15.059-24.781-7.896-8.444-15.793-17.805-15.793-32.674V28.158c0-18.54 10.1-27.718 26.077-27.718 16.161 0 26.077 9.178 26.077 27.718v16.704Z" style="mix-blend-mode:difference"/>
</svg>
