<svg xmlns="http://www.w3.org/2000/svg" width="571" height="135" fill="none" viewBox="0 0 571 135">
  <path fill="#BFACA0" d="M21.712 3.193v128.494H.232V3.193h21.48Zm38.02 21.844c0-5.14-1.47-7.342-4.59-7.342-3.121 0-4.59 2.203-4.59 7.342v84.439c0 5.323 1.469 7.526 4.59 7.526 3.12 0 4.59-2.203 4.59-7.526V84.144h21.663v22.395c0 18.906-10.464 27.901-26.253 27.901-15.605 0-26.07-8.995-26.07-27.901V28.158C29.072 9.068 39.537.44 55.142.44c15.789 0 26.253 8.627 26.253 27.718v22.21H59.732v-25.33Zm80.111 3.121v78.381c0 18.356-9.914 27.901-26.07 27.901-16.34 0-26.253-9.545-26.253-27.901V28.158C87.52 9.985 97.434.44 113.773.44c16.34 0 26.07 9.362 26.07 27.718Zm-21.48-3.12c0-5.14-1.469-7.343-4.59-7.343-3.304 0-4.59 2.203-4.59 7.342v84.439c0 5.323 1.286 7.526 4.59 7.526 3.121 0 4.59-2.203 4.59-7.526V25.037Zm84.15-21.845v128.494h-25.886L164.51 51.103l-2.203-13.216-.918.183 1.102 13.217 5.14 80.4h-21.48V3.193h25.886L185.99 93.69l.918-.183-5.875-90.313h21.48Zm35.075 0h25.152c16.339 0 27.171 10.096 27.171 29.187v16.704c0 11.013-4.773 18.54-13.218 21.477v.734c8.628 2.753 13.218 10.463 13.218 21.477v20.742c0 7.342.184 11.564 1.469 17.438v.735h-21.664c-1.101-6.609-1.469-10.831-1.469-18.173V87.081c0-5.14-1.652-7.342-5.507-7.342h-3.672v51.948h-21.48V3.193Zm21.48 17.255V62.3h3.672c3.855 0 5.507-2.203 5.507-7.526V27.791c0-5.14-1.652-7.343-5.507-7.343h-3.672Zm74.236-17.255v17.255h-15.788v38.548h14.687v17.255h-14.687v37.997h17.441v17.439h-38.921V3.193h37.268Zm58.43 27.718V42.66c0 12.299-4.59 19.641-13.035 22.578v.55c8.812 2.754 13.585 10.831 13.585 22.579v15.419c0 19.091-10.831 28.085-27.171 28.085h-25.152V3.193h24.968c16.156 0 26.805 8.811 26.805 27.718Zm-21.48-2.937c0-5.14-1.653-7.342-5.325-7.342h-3.488v36.345h3.305c4.039 0 5.508-2.02 5.508-8.444V27.974Zm.367 54.518c0-5.69-1.836-8.26-5.875-8.26h-3.305v40.2h3.672c3.855 0 5.508-2.203 5.508-7.526V82.492Zm78.493-54.334v78.381c0 18.356-9.914 27.901-26.07 27.901-16.339 0-26.253-9.545-26.253-27.901V28.158c0-18.173 9.914-27.718 26.253-27.718 16.34 0 26.07 9.362 26.07 27.718Zm-21.48-3.12c0-5.14-1.469-7.343-4.59-7.343-3.304 0-4.589 2.203-4.589 7.342v84.439c0 5.323 1.285 7.526 4.589 7.526 3.121 0 4.59-2.203 4.59-7.526V25.037Zm27.788-21.845h25.152c16.34 0 27.172 10.096 27.172 29.187v16.704c0 11.013-4.774 18.54-13.219 21.477v.734c8.629 2.753 13.219 10.463 13.219 21.477v20.742c0 7.342.183 11.564 1.468 17.438v.735h-21.663c-1.102-6.609-1.469-10.831-1.469-18.173V87.081c0-5.14-1.652-7.342-5.508-7.342h-3.672v51.948h-21.48V3.193Zm21.48 17.255V62.3h3.672c3.856 0 5.508-2.203 5.508-7.526V27.791c0-5.14-1.652-7.343-5.508-7.343h-3.672Zm93.33-17.255v128.494h-25.886l-12.117-80.584-2.203-13.216-.918.183 1.102 13.217 5.14 80.4h-21.48V3.193h25.886l13.953 90.496.918-.183-5.875-90.313h21.48Z" style="mix-blend-mode:difference"/>
</svg>
