<svg xmlns="http://www.w3.org/2000/svg" width="511" height="295" fill="none" viewBox="0 0 511 295">
  <path fill="#FFE5D5" d="M354.248 174.898c.025-.608.068-1.217.069-1.825.005-4.495.003-8.989.003-13.483v-1.565c.514-.358.97-.276 1.406-.277 4.494-.005 8.989-.003 13.483-.003.167 0 .334-.004.5.005.874.051 1.039.177 1.208 1.053.447 2.341.881 4.685 1.316 7.03 1.395 7.522 2.787 15.045 4.181 22.567l3.516 18.969 3.463 18.641c1.285 6.922 2.571 13.845 3.854 20.767 1.141 6.16 2.276 12.321 3.42 18.48.089.473.231.937.439 1.394.163-.854.084-1.701.02-2.544-.47-6.14-.846-12.281-.968-18.443-.218-10.927-.588-21.851-.872-32.778-.283-10.815-.531-21.632-.807-32.448-.176-6.877-.391-13.754-.558-20.631-.056-2.29-.34-2.04 1.988-2.056 3.163-.021 6.326-.005 9.488-.005.333 0 .667-.011.999.008.847.049 1.01.228 1.045 1.144.015.388.005.776.005 1.165v21.473c0 36.066.002 72.132-.005 108.197 0 2.664.332 2.317-2.259 2.328-3.994.016-7.989.004-11.985.004-.333 0-.666.008-.998-.003-1.026-.034-1.143-.107-1.344-1.077a227.547 227.547 0 0 1-.889-4.571 42592.586 42592.586 0 0 1-5.952-31.88c-1.716-9.21-3.414-18.424-5.132-27.634-1.719-9.21-3.484-18.412-5.171-27.627-.988-5.399-1.863-10.818-2.794-16.227-.102-.593-.237-1.18-.373-1.857-.354.209-.241.489-.231.692.117 2.383.252 4.765.375 7.147.162 3.158.36 6.315.465 9.476.186 5.544.303 11.092.468 16.637.293 9.872.611 19.742.899 29.614.288 9.872.544 19.744.83 29.616.152 5.213.338 10.425.505 15.637.016.499.018.998.013 1.498-.003.322-.184.511-.502.533-.332.023-.665.025-.998.025-3.44.002-6.879.002-10.32 0-.332 0-.667.003-.997-.034-.443-.05-.685-.302-.711-.77-.031-.553-.02-1.109-.02-1.664 0-34.789 0-69.579-.004-104.368 0-.719-.046-1.439-.071-2.157.132-1.221.118-2.443.012-3.665.109-.797.085-1.594-.014-2.39.129-.705.124-1.41.005-2.116v-.002ZM96.218 61.26v53.26c0 1.998.006 3.994.377 5.97.267 1.423.64 2.807 1.285 4.111 1.151 2.329 2.964 3.848 5.5 4.44 2.251.526 4.51.513 6.746-.116 2.075-.584 3.637-1.846 4.732-3.692.92-1.551 1.404-3.258 1.668-5.02.229-1.535.405-3.08.366-4.641-.019-.776 0-1.553 0-2.329 0-35.95-.002-71.901.004-107.852 0-2.54-.313-2.233 2.178-2.244 2.996-.015 5.991-.004 8.987-.003.388 0 .778-.01 1.165.013.503.027.646.186.672.739.018.387.01.776.01 1.164 0 35.95-.004 71.901.007 107.851 0 3.507-.23 6.982-1.015 10.408a27.295 27.295 0 0 1-1.533 4.739c-2.52 5.843-6.876 9.561-13.021 11.148-3.519.909-7.101 1.149-10.729.804-2.275-.216-4.499-.618-6.654-1.387-4.819-1.723-8.393-4.861-10.751-9.399-1.29-2.484-2.097-5.127-2.58-7.87a43.688 43.688 0 0 1-.664-7.615c.004-36.283.001-72.567.002-108.85 0-1.802-.154-1.75 1.686-1.748 3.273.003 6.546 0 9.82.001.333 0 .666-.008.998.011.546.032.707.174.731.684.024.499.014.998.014 1.498v55.923l-.001.002Zm324.961 75.79c-.485.268-.882.2-1.264.2-3.495.006-6.99.003-10.485.003-.277 0-.554-.002-.831-.012-.386-.014-.597-.225-.681-.597-.205-.92-.424-1.836-.631-2.755-4.367-19.354-8.732-38.708-13.102-58.061a320.583 320.583 0 0 0-.987-4.21c-.038-.155-.138-.307-.337-.305-.172.002-.322.07-.387.242-.175.466-.358.93-.514 1.403-1.11 3.368-2.196 6.745-3.334 10.104-.345 1.018-.467 2.034-.466 3.1.012 16.309.008 32.619.008 48.928 0 .5-.005.999-.009 1.498-.002.391-.188.625-.589.65-.277.016-.555.015-.832.015H376.42c-.277 0-.555-.003-.832-.01-.378-.009-.633-.161-.649-.578-.006-.167-.012-.332-.013-.499-.003-.443-.002-.887-.002-1.331 0-43.104-.002-86.207.005-129.311 0-2.72-.386-2.36 2.378-2.376 2.996-.017 5.992-.005 8.987-.002.443 0 .888.002 1.329.03.316.02.501.225.521.536.025.387.023.775.023 1.163 0 13.203.021 26.406-.017 39.61-.007 2.659-.222 5.318-.356 7.977-.191 3.766-.394 7.532-.596 11.299-.053.997-.125 1.992-.178 2.989-.007.146-.017.344.207.352.204.007.262-.17.307-.325.885-3.032 1.771-6.064 2.65-9.098 5.104-17.62 10.207-35.24 15.306-52.86.558-1.927.328-1.66 2.22-1.67 3.273-.016 6.546-.005 9.818-.003.389 0 .777-.004 1.165.019.413.024.588.26.463.673a817.366 817.366 0 0 1-1.759 5.72c-4.826 15.563-9.646 31.127-14.495 46.682-.327 1.05-.331 2.015-.077 3.082 3.534 14.825 7.032 29.659 10.541 44.49 2.564 10.84 5.134 21.678 7.699 32.518.05.212.068.431.112.72h.002Zm-165.236 36.918c.258 1.247.559 2.487.763 3.743.419 2.576.611 5.174.61 7.787-.005 6.933.018 13.867-.012 20.8-.014 3.225-.333 6.421-1.217 9.541-.471 1.66-1.094 3.255-1.929 4.767-1.77 3.207-4.295 5.615-7.594 7.212-.446.216-.884.451-1.322.683-.044.022-.067.082-.099.123.08.313.34.404.6.511 5.002 2.055 8.099 5.855 9.867 10.845.818 2.309 1.279 4.7 1.494 7.142.17 1.937.215 3.875.213 5.817-.007 7.155.016 14.31.003 21.466a90.77 90.77 0 0 0 1.302 15.562c.084.49.125.99.152 1.487.021.406-.159.575-.605.597-.387.019-.776.012-1.164.013h-9.485c-.388 0-.776-.005-1.164-.013-.393-.009-.587-.217-.641-.606-.2-1.428-.423-2.851-.623-4.278-.731-5.233-.825-10.501-.832-15.771-.012-7.71.001-15.42-.007-23.13-.002-1.943-.088-3.881-.502-5.79a15.026 15.026 0 0 0-.91-2.844c-1.194-2.732-3.267-4.418-6.134-5.149-.968-.247-1.953-.406-2.959-.407-2.218-.003-4.438-.02-6.656-.011-.964.004-.988.047-1.01 1.059-.01.443-.002.887-.002 1.331 0 17.86.002 35.722-.004 53.582 0 2.278.26 2.019-2.051 2.027-3.106.011-6.213.003-9.318.002-.444 0-.888.001-1.33-.024-.311-.018-.509-.198-.522-.523a32.744 32.744 0 0 1-.025-1.33v-76.214c.274-.022.549-.063.824-.063 3.811-.004 7.622-.006 11.434 0 .328 0 .656.064.983.098l.008 6.155c0 .555.002 1.109 0 1.664-.007 1.46-.063 1.512 1.424 1.505 1.664-.007 3.328.023 4.991-.012.996-.02 1.998-.074 2.983-.218 3.716-.542 6.326-2.51 7.621-6.09.263-.726.476-1.477.644-2.231.435-1.959.523-3.955.527-5.952.012-5.434.007-10.868 0-16.302 0-.55.083-1.109-.107-1.649.19-1.197.134-2.398.043-3.598a47.89 47.89 0 0 0-.205-8.717c-.199-1.751-.66-3.457-1.54-5.015-.653-1.159-1.403-2.234-2.62-2.882-.536-.538-1.15-.923-1.929-.984-.291-.148-.568-.344-.876-.434a12.5 12.5 0 0 0-3.434-.485c-2.154-.013-4.308-.011-6.462-.014a6.33 6.33 0 0 0-.497.018c-.308.025-.52.167-.535.501-.018.386-.026.772-.026 1.159-.001 5.579-.002 11.159.002 16.738 0 .44.041.879.064 1.32-.233.436-.442.888-.704 1.306-3.89 6.23-7.786 12.456-11.687 18.679-.264.42-.575.808-.864 1.211-.022-.664-.061-1.328-.062-1.992-.003-15.908-.004-31.815 0-47.722 0-2.223-.222-2.008 2.086-2.009 5.874-.005 11.75-.011 17.624.004 2.722.007 5.427.245 8.07.933 1.176.305 2.327.706 3.491 1.063.577.412 1.214.697 1.889.904.217.162.422.344.652.484a19.47 19.47 0 0 1 6.309 6.124c.205.317.466.598.701.896.07.538.325.982.691 1.371.143.687.465 1.3.803 1.906.19.8.431 1.584.797 2.325v-.002ZM90.8 158.174c.113.563-.138 1.146-.26 1.723-3.317 15.616-6.652 31.228-9.985 46.841-1.122 5.258-2.23 10.519-3.383 15.771-.196.896-.175 1.729.009 2.62 3.402 16.504 6.78 33.014 10.166 49.521 1.125 5.485 2.258 10.967 3.388 16.45.055.265.177.525.032.809-.284.193-.625.152-.953.153-3.663.003-7.324.001-10.986.001-.111 0-.223 0-.333-.003-.772-.018-.809-.196-.94-.876-.398-2.069-.835-4.13-1.245-6.195-1.72-8.645-3.436-17.289-5.155-25.934-.778-3.914-1.615-7.818-2.312-11.747-.32-1.794-.38-3.636-.53-5.459-.269-3.261-.512-6.525-.78-9.787-.04-.489-.036-.999-.289-1.446-.04-.071-.177-.093-.275-.122-.126-.036-.227.02-.256.151-.06.267-.128.535-.152.806a721.453 721.453 0 0 0-.541 6.132c-.246 2.985-.43 5.976-.734 8.955-.162 1.596-.51 3.173-.792 4.755-1.28 7.205-2.566 14.408-3.847 21.613-1.038 5.84-2.07 11.681-3.106 17.522-.068.382-.158.76-.233 1.141-.063.323-.282.453-.584.473a9.81 9.81 0 0 1-.664.02c-3.606 0-7.213.003-10.82-.004-.375 0-.778.088-1.162-.259.462-2.463.926-4.968 1.402-7.47 1.387-7.297 2.782-14.593 4.167-21.891 1.374-7.244 2.734-14.49 4.11-21.734 1.036-5.445 2.085-10.889 3.132-16.332a5.9 5.9 0 0 0-.005-2.312 20168.65 20168.65 0 0 1-5.096-25.267c-1.823-9.076-3.638-18.154-5.453-27.232-.695-3.479-1.384-6.959-2.076-10.439-.043-.217-.107-.431-.136-.65-.035-.254.106-.422.34-.481.16-.04.331-.035.497-.035 3.773-.002 7.546-.008 11.318.002.89.003.928.031 1.092.886.552 2.886 1.084 5.776 1.62 8.665 1.394 7.522 2.788 15.043 4.178 22.566.614 3.325 1.297 6.641 1.802 9.982.44 2.904.681 5.838.997 8.761.256 2.37.49 4.744.74 7.115.017.164.03.343.108.48.073.13.217.282.348.303.247.04.406-.131.433-.38.111-.992.226-1.984.317-2.978.373-4.032.683-8.069 1.13-12.093.207-1.868.654-3.71 1.027-5.556 1.626-8.041 3.265-16.08 4.896-24.12.804-3.966 1.598-7.934 2.401-11.9.088-.434.184-.868.3-1.296a.528.528 0 0 1 .473-.4 5.88 5.88 0 0 1 .663-.037c3.718-.002 7.435-.002 11.153 0 .274 0 .558-.025.846.216l-.002.002Zm236.507-71.206c-.026.497-.076.994-.076 1.49-.005 8.823-.004 17.643-.003 26.465 0 2.501.098 4.992.763 7.425.308 1.128.71 2.218 1.333 3.215 1.147 1.837 2.77 2.973 4.911 3.391 1.438.28 2.857.288 4.293-.008 2.012-.415 3.553-1.494 4.663-3.207.639-.986 1.071-2.07 1.371-3.198.387-1.45.649-2.925.719-4.426.054-1.163.082-2.329.083-3.493.008-7.712.004-15.424.004-23.135 0-1.934-.121-1.808 1.795-1.808 3.273 0 6.547-.002 9.82.002.387 0 .776.012 1.162.04.249.019.403.184.427.426.032.33.043.663.043.994-.001 7.823.016 15.646-.017 23.468-.017 4.129-.586 8.18-1.961 12.096-.817 2.321-1.94 4.475-3.488 6.395-2.371 2.942-5.396 4.935-9.01 5.973-5.246 1.506-10.515 1.505-15.746-.084-4.977-1.512-8.632-4.65-11.057-9.235-1.682-3.18-2.533-6.61-2.999-10.152-.297-2.261-.358-4.531-.355-6.809.011-7.157.006-14.314.001-21.47 0-.61-.044-1.218-.067-1.826a5.797 5.797 0 0 0-.003-2.044 5.83 5.83 0 0 0 .005-1.882 5.95 5.95 0 0 0 0-2.01c.023-.664.065-1.327.065-1.991.004-18.308.011-36.615-.003-54.922-.003-3.397.255-6.76 1.026-10.071.492-2.114 1.202-4.15 2.208-6.08 2.491-4.78 6.322-7.944 11.497-9.419 4.851-1.381 9.759-1.422 14.638-.197 6.192 1.555 10.428 5.42 12.87 11.285 1.05 2.525 1.677 5.166 2.015 7.872.226 1.815.384 3.638.381 5.474-.012 7.766-.002 15.533.003 23.3 0 1.524.013 1.504-1.423 1.503-3.44-.005-6.879-.001-10.319-.002-.221 0-.443.006-.665-.005-.714-.035-.813-.138-.839-.918-.015-.444-.005-.887-.005-1.332 0-7.711-.004-15.422.001-23.134.001-2.392-.126-4.768-.746-7.094-.3-1.13-.707-2.218-1.323-3.218-1.068-1.736-2.572-2.865-4.58-3.319-1.828-.413-3.639-.363-5.422.183-1.713.523-3.025 1.595-3.969 3.115-.619.998-1.048 2.078-1.34 3.21-.374 1.454-.634 2.928-.687 4.43a97.162 97.162 0 0 0-.072 3.328c-.004 17.808-.004 35.617 0 53.425 0 .553.05 1.104.077 1.657a6.071 6.071 0 0 0-.011 2.15c-.096.676-.108 1.35.029 2.022-.169.718-.152 1.436-.018 2.156h.001Zm103.388 138.12c0 14.815-.002 29.629.003 44.444 0 2.219.053 4.438.488 6.627.273 1.365.652 2.695 1.313 3.93 1.27 2.377 3.231 3.734 5.923 4.029 1 .109 1.991.109 2.987-.017 2.36-.295 4.152-1.463 5.377-3.492.962-1.593 1.416-3.359 1.717-5.177.31-1.869.359-3.751.358-5.64-.004-7.601-.009-15.203.004-22.804.004-2.527-.314-2.212 2.19-2.224 3.052-.015 6.103-.005 9.155-.003.444 0 .888-.002 1.331.02.308.015.521.179.539.506.023.387.029.776.029 1.164.001 7.435.017 14.87-.006 22.304-.013 3.954-.454 7.859-1.617 11.658a25.125 25.125 0 0 1-1.318 3.41c-2.643 5.584-6.994 9.083-12.996 10.453-4.505 1.027-9.031.973-13.508-.236-5.32-1.436-9.273-4.604-11.849-9.482-1.6-3.03-2.438-6.291-2.938-9.657-.327-2.202-.396-4.419-.396-6.639-.002-28.963.003-57.926-.005-86.889-.001-3.791.348-7.532 1.391-11.188a24.557 24.557 0 0 1 1.984-4.928c2.439-4.521 6.113-7.571 11.03-9.022 5.229-1.543 10.512-1.555 15.758-.056 5.067 1.447 8.784 4.586 11.219 9.255 1.295 2.482 2.096 5.129 2.577 7.872.461 2.626.679 5.279.677 7.949-.007 7.379-.002 14.758-.003 22.138 0 .387-.001.776-.021 1.164-.017.312-.191.51-.511.537a9.976 9.976 0 0 1-.83.027c-3.496.002-6.991.002-10.486 0-.277 0-.555 0-.831-.02-.309-.022-.523-.185-.539-.508a32.446 32.446 0 0 1-.03-1.497c-.001-7.823-.007-15.646.001-23.469.002-2.283-.161-4.544-.701-6.769a12.747 12.747 0 0 0-1.099-2.954c-1.234-2.331-3.176-3.662-5.781-3.982-1.381-.17-2.767-.123-4.128.252-1.726.475-3.114 1.419-4.127 2.9-.729 1.065-1.197 2.243-1.542 3.481-.661 2.377-.776 4.813-.784 7.257-.017 5.548-.007 11.097-.007 16.646v28.63h.002Zm-281.114-11.122c.163 4.814-.375 9.53-2.081 14.061-1.804 4.793-4.829 8.57-9.4 11.011-2.272 1.214-4.703 1.948-7.231 2.395-1.92.339-3.857.426-5.801.428-1.886.003-3.773-.007-5.659.009-.827.008-.938.139-.968.975-.016.444-.006.887-.006 1.332 0 15.258 0 30.516-.002 45.775 0 .554-.012 1.108-.048 1.661-.016.239-.195.395-.436.42a7.9 7.9 0 0 1-.83.03c-3.55.002-7.102.001-10.652.001h-.167c-1.04-.027-1.05-.032-1.078-.996-.01-.333-.004-.666-.004-.999V159.903c0-.333-.008-.666.005-.999.03-.853.097-.938.979-.943 2.552-.013 5.104-.005 7.656-.005 3.663 0 7.324-.015 10.986.006 2.668.015 5.316.245 7.918.882 7.16 1.754 12.083 6.06 14.742 12.931 1.21 3.129 1.802 6.398 2.018 9.735.079 1.217.096 2.44.097 3.66.01 7.157.006 14.315.004 21.472 0 .444-.027.887-.042 1.331-.218.02-.435.056-.653.056a3898.9 3898.9 0 0 1-11.343 0c-.325 0-.65-.065-.976-.1-.003-8.037-.005-16.073-.012-24.11-.001-1.164.006-2.33-.064-3.491-.124-2.056-.485-4.068-1.315-5.972-1.187-2.724-3.229-4.431-6.1-5.181-1.246-.325-2.512-.419-3.788-.427a552.91 552.91 0 0 0-4.988-.002c-2.062.007-1.905-.168-1.905 1.854-.002 19.565-.001 39.13 0 58.694 0 .443.009.887.034 1.329.018.322.221.497.537.498 2.77.01 5.551.202 8.307-.097 4.446-.484 7.281-2.976 8.495-7.277.437-1.549.71-3.136.744-4.75.035-1.662.04-3.325.056-4.987.545-.035 1.089-.097 1.633-.1 1.863-.013 3.726-.013 5.589-.003 1.916.01 3.833.039 5.749.059Zm358.402 16.435c-.599.301-1.22.177-1.82.178-4.216.012-8.432.004-12.649.008-1.994.001-1.862-.135-1.862 1.917-.002 15.645-.001 31.289 0 46.933 0 .444-.002.888.023 1.331.023.395.262.583.653.585.444.003.888.009 1.332.009 5.27 0 10.54.003 15.81-.001 1.559 0 1.532-.038 1.53 1.571-.005 2.552 0 5.104-.004 7.656 0 .332-.01.665-.038.996-.021.244-.177.409-.418.434a9.421 9.421 0 0 1-.994.045c-9.93.003-19.86.002-29.79.002-.222 0-.445.005-.665-.009-.537-.035-.627-.136-.661-.733-.012-.222-.008-.444-.009-.666-.002-.389 0-.777 0-1.166 0-43.049-.002-86.098.006-129.148 0-2.752-.384-2.377 2.367-2.382 8.876-.015 17.753-.006 26.628-.004 1.866 0 1.849-.18 1.844 1.77-.007 2.441 0 4.881-.003 7.322 0 .388-.007.777-.04 1.162-.028.317-.237.496-.548.512-.443.023-.887.021-1.331.021-4.605.002-9.209 0-13.814.002-.443 0-.886.008-1.329.03-.319.015-.502.204-.518.521-.022.443-.03.886-.03 1.33-.002 15.755-.001 31.51-.001 47.265 0 .277-.004.555.003.833.029 1.089.03 1.11 1.135 1.112 4.438.01 8.876 0 13.314.007 2.196.003 1.986-.216 1.992 1.932.007 2.385.006 4.771-.002 7.156-.001.492.074.995-.11 1.468l-.001.001ZM166.08 188.903c.024-.608.067-1.215.067-1.822.004-9.082 0-18.163.005-27.244.001-2.043-.192-1.88 1.87-1.881 5.205-.004 10.41.001 15.615-.005.606 0 1.213-.05 1.819-.077.787.14 1.574.131 2.361-.001.55.025 1.1.068 1.65.071 1.933.009 3.866.002 5.799.005.386 0 .774-.002 1.158.032.307.026.501.233.531.536.038.383.047.771.048 1.156.004 2.044-.005 4.087.007 6.13.004.715.06 1.43.092 2.144-.089.351-.167.709-.539.889a311.524 311.524 0 0 0-15.736-.005c-.217-.031-.434-.093-.65-.088-.689.014-.806.109-.806.723 0 .492.059.983.092 1.475-.025.273-.073.547-.074.822-.003 7.756-.003 15.513.002 23.27 0 .385.051.77.077 1.156a14.06 14.06 0 0 0 .003 3.806c-.194.977-.088 1.966-.088 2.948 0 1.696.05 3.393.079 5.09a4.293 4.293 0 0 0 .009 2.019 4.79 4.79 0 0 0 0 1.833 4.297 4.297 0 0 0-.009 2.02c-.185 1.769-.057 3.542-.069 5.314-.002.398.216.604.616.61.444.006.887.013 1.33.013h12.643c.388 0 .777-.008 1.164.013.503.027.637.186.672.738.006.111.006.222.006.333 0 2.939.001 5.878-.005 8.817 0 .217-.053.434-.08.637-.603.332-1.226.197-1.825.198-4.214.013-8.429.004-12.643.009-2.025.002-1.895-.15-1.895 1.882-.002 15.693 0 31.386-.002 47.08 0 1.981-.079 1.811 1.786 1.812 5.156.003 10.313 0 15.47.001.444 0 .888-.01 1.331.01.62.028.754.153.757.822.012 2.994.012 5.988.002 8.983-.003.756-.124.854-.868.883-.332.013-.665.004-.999.004h-28.779c-.388 0-.777.008-1.164-.008-.659-.029-.731-.101-.753-.809-.018-.555-.008-1.109-.008-1.664 0-24.566 0-49.132-.004-73.697 0-.664-.041-1.328-.062-1.991a5.968 5.968 0 0 0-.005-2 5.637 5.637 0 0 0 0-1.851 5.602 5.602 0 0 0 .006-1.92c.022-.274.062-.549.062-.824.004-4.532.004-9.063 0-13.595 0-.329-.045-.659-.068-.989a19.99 19.99 0 0 0 .002-3.813ZM.008 224.912c0-21.578-.004-43.156.004-64.734 0-2.527-.308-2.217 2.2-2.219 8.765-.011 17.53-.004 26.293-.004.277 0 .555-.003.832 0 1.452.016 1.464.016 1.469 1.479.008 2.607.003 5.214 0 7.821 0 .332.002.668-.038.996-.028.231-.191.424-.427.446-.44.041-.885.045-1.329.045-4.714.003-9.43.002-14.144.002-1.724 0-1.653-.074-1.653 1.616v28.456c0 6.324 0 12.647.002 18.971 0 .499.007.998.028 1.497.014.315.185.514.513.528.443.018.887.028 1.33.028 4.216.002 8.431.001 12.647.002.277 0 .555-.005.832.001 1.082.026 1.11.035 1.115 1.141.012 2.829.01 5.658 0 8.487-.004 1.034-.06 1.09-1.162 1.093-4.05.011-8.099.004-12.147.006-.832 0-1.664.005-2.496.023-.385.008-.616.222-.637.614-.02.387-.023.776-.023 1.163v47.095c0 2.093-.1 1.891 1.88 1.893 5.269.005 10.539.003 15.808.002 1.774 0 1.683-.103 1.682 1.749 0 2.496.001 4.992-.002 7.489 0 .332-.01.665-.041.995-.023.242-.188.399-.428.427-.274.032-.552.04-.828.04-9.984.002-19.969.002-29.953.002-.221 0-.444-.005-.665-.008-.385-.005-.635-.163-.643-.58-.01-.444-.015-.887-.015-1.331V224.91l-.004.002Zm159.448-95.682c.018 1.883.063 3.765.04 5.647-.009.751.401 1.684-.216 2.212-.512.44-1.384.156-2.096.159-3.05.014-6.101.007-9.151.005-.388 0-.777.005-1.164-.02-.318-.021-.502-.218-.514-.537a48.485 48.485 0 0 1-.028-1.662l-.001-129.77c0-.389-.01-.777.004-1.165.031-.84.119-.946.987-.947 4.714-.01 9.428-.005 14.142-.005.111 0 .221.005.333.005.465-.005.684.23.768.685.288 1.58.61 3.156.904 4.735a106940.267 106940.267 0 0 1 10.009 53.935c.051.272.081.549.121.823-.14.083-.27.199-.421.242a41.899 41.899 0 0 0-8.762 3.593c-.139.076-.311.096-.467.142-1.087-5.827-2.17-11.654-3.26-17.48-1.121-5.991-2.255-11.978-3.196-18-.256-1.642-.552-3.277-.845-4.913-.047-.264-.173-.513-.272-.766-.008-.02-.092-.02-.14-.016-.054.004-.139.005-.157.036-.203.365-.104.757-.083 1.14.253 4.483.554 8.963.751 13.448.184 4.154.263 8.312.379 12.468.158 5.653.305 11.306.466 16.959.016.55.096 1.099.147 1.648-.166.894-.045 1.778.094 2.662-.071.882-.06 1.762.069 2.639a13.768 13.768 0 0 0 .059 3.182c.003.993-.019 1.987.012 2.978.163 5.302.352 10.604.506 15.905.17 5.8.312 11.6.475 17.4.015.547-.058 1.109.173 1.635-.121 1.237-.047 2.471.097 3.702-.08 1.338-.07 2.676.079 4.01-.072 1.102-.128 2.204.156 3.288l.002-.002Zm94.294-55.881c.009-.666.028-1.33.028-1.997.001-14.703.004-29.408 0-44.112-.001-3.392.233-6.761.954-10.084.508-2.341 1.26-4.598 2.389-6.717 2.445-4.59 6.152-7.667 11.161-9.084 5.192-1.469 10.417-1.469 15.6.03 5.062 1.464 8.763 4.625 11.177 9.307 1.309 2.54 2.102 5.247 2.574 8.047a45.77 45.77 0 0 1 .636 7.62c.003 18.922 0 37.843-.001 56.764-.11.01-.221.037-.329.027-3.629-.32-7.242-.772-10.829-1.415-.702-.125-1.44-.09-2.091-.453.004-8.924.01-17.847.011-26.772.002-9.81-.005-19.62.004-29.431.001-1.777-.089-3.545-.343-5.304-.239-1.653-.633-3.265-1.415-4.755-1.036-1.976-2.621-3.242-4.826-3.733a11.44 11.44 0 0 0-4.294-.118c-2.729.427-4.655 1.938-5.793 4.456a14.194 14.194 0 0 0-.993 3.162c-.458 2.35-.57 4.726-.569 7.113.002 16.406.002 32.813 0 49.218 0 .665-.025 1.33-.038 1.994-.484-.107-.975-.191-1.451-.325-2.656-.743-5.318-1.466-7.958-2.265-1.207-.366-2.472-.575-3.604-1.175v.002Zm35.278 132.222c-.026.663-.075 1.326-.075 1.989-.004 27.405-.003 54.81-.004 82.215 0 .555-.004 1.11-.015 1.664-.007.403-.24.593-.625.611-.278.012-.555.013-.832.013-3.439 0-6.879.002-10.318-.001-.332 0-.665-.012-.996-.04-.248-.021-.408-.173-.418-.426a41.895 41.895 0 0 1-.036-1.663c-.002-24.188-.001-48.375-.004-72.563 0-.664-.044-1.327-.067-1.991.121-.7.104-1.402.014-2.104a4.046 4.046 0 0 0-.013-1.504 6.81 6.81 0 0 0 .004-2.128c.021-.492.061-.984.062-1.477.005-3.901.005-7.802 0-11.703 0-.548-.041-1.096-.063-1.643.296-.466.563-.953.893-1.394 2.323-3.112 4.661-6.21 6.986-9.319 1.793-2.397 3.574-4.803 5.36-7.204.022.664.065 1.328.065 1.991.005 5.373 0 10.745.006 16.117 0 .607.049 1.214.076 1.82a13.126 13.126 0 0 0 .002 3.308 8.34 8.34 0 0 0 .001 2.372 11.568 11.568 0 0 0-.003 3.06Zm32.146 9.293c.013 1.441.025 2.883.04 4.324.005.384.176.627.587.636.443.01.887.017 1.33.018l12.643.001c.443 0 .887.008 1.329.027.324.014.486.218.526.526.014.11.016.221.016.332.001 2.995.008 5.989-.004 8.983-.002.763-.092.853-.874.862-1.719.02-3.439.011-5.157.012l-8.318.001c-.444 0-.888-.006-1.331.016-.549.026-.712.175-.746.671-.022.332-.017.665-.017.998 0 15.804 0 31.608-.002 47.412 0 1.829-.041 1.678 1.754 1.679 5.378.003 10.757-.002 16.136.004 1.449.001 1.459.013 1.462 1.462.007 2.772.007 5.545-.005 8.318-.003.777-.123.883-.836.915-.332.015-.665.005-.998.005-9.648 0-19.297.002-28.945-.002-1.971 0-1.79.18-1.79-1.781-.003-25.176-.003-50.351 0-75.527 0-.498.032-.997.049-1.495.151.066.312.117.454.2 3.249 1.893 6.734 2.378 10.408 1.765.761-.127 1.524-.24 2.287-.36l.002-.002Z"/>
  <path fill="#FFE5D5" d="M193.113 67.324c0 22.581.003 45.162-.003 67.744 0 2.502.319 2.176-2.23 2.18-4.549.007-9.098-.018-13.647-.03.408-1.022.822-2.043 1.224-3.067.162-.412.076-.63-.313-.791-.762-.315-1.588-.476-2.271-.975.22-.726-.054-1.419-.173-2.114-.262-1.529-.573-3.05-.858-4.574-1.269-6.809-2.533-13.619-3.803-20.428-1.29-6.917-2.578-13.835-3.878-20.751-.675-3.594-1.373-7.183-2.061-10.775.421-.538 1.04-.798 1.609-1.117 2.542-1.428 5.168-2.66 8.041-3.28 1.196 6.482 2.39 12.964 3.589 19.445 1.279 6.916 2.561 13.833 3.846 20.75.161.87.341 1.737.53 2.601.035.159.182.29.366.233.07-.022.146-.169.143-.256-.053-1.329-.086-2.66-.188-3.985-.408-5.306-.736-10.615-.859-15.937-.186-8.091-.428-16.18-.646-24.27.921-.436 1.933-.342 2.899-.436 2.887-.281 5.784-.39 8.682-.168h.001Zm16.553-4.699c.024-.664.069-1.326.069-1.99.004-18.458.003-36.917.005-55.375 0-.553.013-1.107.048-1.658.015-.24.191-.395.434-.419.274-.028.553-.036.829-.036 3.492-.002 6.984-.002 10.476 0 .277 0 .555.007.83.03.322.025.507.24.527.535.036.551.033 1.107.033 1.661.002 19.179 0 38.359.006 57.538 0 .717-.097 1.442.112 2.148a3.987 3.987 0 0 0 .004 2.088 4.039 4.039 0 0 0-.025 2.063c-.148.678-.162 1.356.019 2.032-.184.536-.111 1.093-.111 1.64-.005 7.723-.005 15.445.001 23.167 0 .492.061.985.093 1.477-.245.432-.475.874-.738 1.294-3.893 6.236-7.789 12.469-11.69 18.7-.231.369-.393.794-.776 1.052-.025-.773-.071-1.546-.071-2.32-.004-15.21-.002-30.42-.007-45.63 0-.662-.045-1.324-.069-1.986a5.584 5.584 0 0 0 .001-2.013 6 6 0 0 0 0-1.988 5.62 5.62 0 0 0-.001-2.011h.001Zm-28.229-.866c-.22-8.258-.436-16.517-.66-24.776-.284-10.475-.586-20.95-.856-31.426-.071-2.744-.426-2.395 2.3-2.41 2.995-.016 5.989-.004 8.983-.002.443 0 .886.002 1.329.024.308.016.526.183.55.503.03.386.03.775.03 1.162l-.003 56.392c-.383.022-.766.063-1.149.061-2.913-.011-5.823.016-8.721.355-.597.07-1.203.08-1.803.117Zm78.763 72.372c-2.928-3.193-4.561-7.019-5.467-11.198-.707-3.261-.955-6.567-.955-9.898.004-9.911.002-19.822-.002-29.733 0-.607-.048-1.214-.073-1.82.174-.343.333-.693.523-1.027.182-.318.432-.438.826-.32 1.375.41 2.759.786 4.141 1.173l7.647 2.14c-.012.665-.036 1.33-.036 1.995-.002 6.985-.002 13.97-.001 20.955 0 3.159-.043 6.32.026 9.479.048 2.152.098 4.322.789 6.403-.181.338-.343.688-.546 1.012a5135.239 5135.239 0 0 1-6.291 10.044c-.175.277-.386.53-.581.795Z"/>
  <path fill="#030303" d="m266.84 83.448-7.647-2.14c-1.382-.387-2.766-.764-4.141-1.173-.394-.118-.644.002-.826.32-.19.334-.349.684-.523 1.027-.229.307-.483.6-.686.924-8.97 14.356-17.937 28.714-26.9 43.074-.204.327-.372.677-.557 1.016-.31.448-.637.887-.927 1.349a1716.727 1716.727 0 0 0-4.697 7.52c-.373.602-.709 1.227-1.062 1.841-1.135 1.771-2.288 3.531-3.402 5.316-11.654 18.66-23.301 37.323-34.955 55.982-.322.515-.696.994-1.046 1.491a14.06 14.06 0 0 1-.003-3.806c.259-.357.537-.699.771-1.071 5.204-8.323 10.403-16.648 15.599-24.976.264-.421.484-.869.725-1.304.371-.18.45-.538.539-.89.287-.404.597-.794.859-1.213 15.803-25.299 31.602-50.6 47.402-75.902 2.467-3.95 4.932-7.901 7.401-11.85 1.034-1.655.727-1.346 2.324-.925 2.089.55 4.157 1.184 6.24 1.76 9.566 2.648 19.212 4.942 29.047 6.365.597.087 1.221.026 1.787.297.121.749-.443 1.208-.777 1.743-12.931 20.686-25.878 41.363-38.817 62.044-2.205 3.525-4.386 7.064-6.578 10.597a6.482 6.482 0 0 1-1.889-.906c5.122-8.175 10.245-16.349 15.364-24.526.264-.421.491-.865.735-1.299.194-.265.406-.519.581-.797 2.1-3.345 4.198-6.693 6.291-10.044.203-.324.365-.674.546-1.012.163-.221.34-.433.486-.665 5.522-8.808 11.04-17.618 16.554-26.431.173-.277.292-.588.437-.883 1.438-1.898 2.61-3.965 3.821-6.008.024-.04.003-.109.003-.219-1.259-.343-2.561-.5-3.865-.647-3.503-.719-7.011-1.408-10.504-2.164-2.58-.559-5.14-1.205-7.71-1.813v-.002Zm22.19 116.691a13.126 13.126 0 0 1 0-3.308c1.15-1.208 2.046-2.611 2.984-3.974 3.517-5.11 6.998-10.246 10.483-15.379.31-.455.592-.94.809-1.445a56.722 56.722 0 0 1 4.544-8.485c.088-.136.13-.302.193-.454.18-.205.386-.394.539-.618a58.4 58.4 0 0 1 6.311-7.702c.23-.237.424-.508.636-.763.453-.406.913-.804 1.357-1.22 4.769-4.475 10.054-8.188 16.041-10.862 2.591-1.156 5.269-2.055 8.071-2.536 1.807-.311 3.628-.458 5.464-.203a9.305 9.305 0 0 1 2.244.59c2.784 1.143 4.264 3.264 4.579 6.213.204 1.912-.137 3.752-.882 5.526-.779 1.856-1.849 3.533-3.093 5.104-2.857 3.608-6.343 6.496-10.224 8.933-4.812 3.019-9.936 5.385-15.278 7.296-.884.317-1.757.665-2.635.998-.921-.004-1.499.429-1.937 1.258-1.989 3.766-3.854 7.586-5.368 11.57-1.26 3.315-2.29 6.692-2.712 10.228-.204 1.708-.265 3.417.151 5.112.523 2.125 1.739 3.237 3.919 3.435 2.058.185 4.089.04 6.025-.781 2.274-.627 4.263-1.821 6.175-3.149 2.647-1.837 5.006-4.01 7.224-6.337 4.095-4.296 7.718-8.972 11.099-13.839a311.793 311.793 0 0 0 5.532-8.276c.732-1.129 1.612-1.951 2.97-2.173.12.706.125 1.411-.005 2.116-.798.2-1.082.908-1.466 1.505-3.789 5.878-7.753 11.632-12.21 17.031-2.971 3.599-6.135 7.015-9.772 9.964-2.382 1.931-4.926 3.593-7.789 4.735-2.514 1.003-5.113 1.455-7.816 1.228-3.188-.269-5.213-2.062-5.885-5.176-.2-.927-.291-1.858-.305-2.806-.04-2.633.424-5.198 1.097-7.718 1.76-6.58 4.685-12.673 7.918-18.632.294-.544.742-.78 1.29-.943a77.003 77.003 0 0 0 6.749-2.359c5.267-2.116 10.307-4.656 14.906-8.015a35.206 35.206 0 0 0 7.031-6.81c.994-1.274 1.844-2.636 2.481-4.123.597-1.393.919-2.841.836-4.371-.139-2.567-1.552-4.367-4.026-5.104-1.026-.305-2.079-.314-3.133-.3-2.927.04-5.7.814-8.407 1.841-4.176 1.584-8.015 3.793-11.606 6.433-7.64 5.616-13.764 12.541-17.875 21.126-1.18 2.463-2.492 4.816-4.071 7.033-.546.769-1.052 1.566-1.581 2.346-3.269 4.82-6.493 9.672-9.996 14.329-.496.66-.913 1.392-1.583 1.911h-.003Zm-13.387 9.505a6.804 6.804 0 0 1-.003 2.127c-.323.077-.644.161-.968.228-1.422.297-2.848.459-4.29.145-1.507-.33-2.653-1.13-3.207-2.608-.333-.889-.472-1.823-.324-2.781a13.432 13.432 0 0 1 1.042-3.495c.595-1.317 1.308-2.569 2.061-3.798a85.544 85.544 0 0 1 4.306-6.326c3.31-4.451 6.655-8.876 9.978-13.317 2.229-2.978 4.322-6.044 6.072-9.336 2.452-4.616 3.574-9.529 3.315-14.746-.091-1.83-.306-3.646-.896-5.399-1.252-3.721-3.619-5.359-7.516-5.215-2.205.082-4.246.75-6.225 1.662-2.738 1.264-5.198 2.965-7.54 4.845-4.211 3.383-7.951 7.246-11.468 11.329-1.917 2.227-3.761 4.516-5.638 6.776-.365-.388-.621-.832-.691-1.37.321-.451.661-.888.958-1.352 5.52-8.638 11.034-17.279 16.55-25.918a230725.55 230725.55 0 0 1 33.284-52.114c1.013-1.585.689-1.361 2.491-1.381 2.326-.025 4.655.063 6.978-.147.124.68.121 1.362.003 2.043-2.203.04-4.407.097-6.611.108-.619.004-1.014.21-1.347.737-2.506 3.957-5.035 7.898-7.553 11.848-.087.136-.129.302-.191.454-.321.447-.664.881-.96 1.344-7.383 11.549-14.761 23.1-22.134 34.654-.295.462-.532.96-.795 1.441-.264.352-.553.688-.789 1.057a6365.37 6365.37 0 0 0-7.345 11.489c-.147.229-.268.474-.399.71.325.345.52.064.696-.098a63.796 63.796 0 0 1 4.83-4.073c2.483-1.879 5.087-3.556 7.992-4.726 1.918-.771 3.894-1.277 5.965-1.366 4.439-.188 7.322 1.952 8.83 5.251.393.86.695 1.748.921 2.666a22.4 22.4 0 0 1 .586 3.941c.355 5.539-.622 10.814-3.161 15.779a63.19 63.19 0 0 1-2.8 4.909c-.265.422-.513.854-.768 1.281-1.787 2.402-3.567 4.808-5.36 7.204-2.325 3.109-4.664 6.208-6.986 9.319-.329.441-.597.928-.893 1.394-.734.682-1.21 1.56-1.777 2.366-1.334 1.894-2.591 3.837-3.652 5.9-.607 1.181-1.108 2.4-1.325 3.723-.081.496-.075.979.028 1.474.214 1.032.818 1.666 1.849 1.863a6.785 6.785 0 0 0 1.807.127c1.053-.083 2.061-.349 3.07-.628Zm-10.227-55.398-.065.021s.042-.044.04-.046l.058-.132-.033.157Z"/>
  <path fill="#FFE5D5" d="M274.324 140.083c.264-.481.502-.98.796-1.441a52115.274 52115.274 0 0 1 22.134-34.654c.296-.463.639-.896.96-1.344.055 5.429.268 10.863-.239 16.281-.294 3.154-.973 6.232-2.202 9.174-2.89 6.915-8.153 10.709-15.483 11.754-1.975.281-3.966.443-5.966.23Z"/>
  <path fill="#030303" d="M275.652 213.276c.091.702.108 1.404-.014 2.104-1.36.251-2.716.492-4.116.456-4.007-.104-6.979-1.888-8.898-5.402-1.189-2.177-1.703-4.549-1.907-6.998-.5-6.02.905-11.651 3.48-17.044 1.941-4.063 4.372-7.827 7.031-11.449 1.277-1.741 2.612-3.44 3.912-5.164.23-.307.422-.643.631-.966.12-.108.262-.2.359-.326 2.348-3.034 4.726-6.044 6.889-9.214.275-.404.61-.779.722-1.277a18.771 18.771 0 0 0 3.051-5.84c.188-.59.268-1.186.217-1.799-.056-.66-.364-1.016-1.024-1.1a7.255 7.255 0 0 0-2.474.112c-1.527.328-2.956.907-4.329 1.642-3.049 1.633-5.716 3.783-8.249 6.108-3.841 3.525-7.317 7.392-10.615 11.421-1.472 1.798-2.917 3.617-4.375 5.427-.366-.741-.607-1.525-.797-2.326.189-.199.392-.387.566-.599 1.794-2.186 3.547-4.407 5.382-6.559 3.206-3.76 6.6-7.342 10.381-10.538 2.165-1.829 4.435-3.508 6.956-4.826 1.532-.801 3.123-1.431 4.823-1.766a9.038 9.038 0 0 1 3.145-.086c1.638.254 2.532 1.277 2.63 2.94a7.004 7.004 0 0 1-.196 2.144c-.274 1.083-.687 2.107-1.175 3.103-.833 1.697-1.847 3.286-2.905 4.848-2.115 3.126-4.466 6.077-6.751 9.076-2.419 3.176-4.922 6.29-7.157 9.604-2.299 3.409-4.365 6.944-5.908 10.771-1.747 4.335-2.593 8.815-2.215 13.496.175 2.174.631 4.282 1.676 6.218 1.529 2.833 3.913 4.273 7.143 4.354 1.405.036 2.755-.244 4.108-.545h.003ZM223.033 71.24c-.181-.676-.166-1.352-.019-2.03.544.098 1.094.171 1.632.295 4.538 1.038 9.034 2.235 13.515 3.491.671.188 1.45.162 1.973.76-.119.737-.621 1.28-.995 1.88-15.828 25.338-31.664 50.671-47.496 76.007-1.291 2.067-2.551 4.153-3.825 6.229a6.882 6.882 0 0 1-2.361.001c1.238-2.035 2.458-4.081 3.719-6.102 6.667-10.682 13.345-21.357 20.015-32.037.232-.372.416-.775.623-1.164.383-.258.545-.684.776-1.052 3.901-6.23 7.797-12.464 11.69-18.7.263-.42.493-.862.738-1.293.104-.127.224-.245.311-.383 4.394-7.031 8.786-14.063 13.178-21.096.146-.235.296-.467.426-.711.162-.305.076-.553-.244-.644a138.373 138.373 0 0 0-3.195-.883c-3.475-.902-6.937-1.857-10.458-2.57l-.003.002Z"/>
  <path fill="#FFE5D5" d="M321.249 208.672c-1.935.821-3.967.966-6.024.781-2.18-.197-3.397-1.309-3.92-3.435-.416-1.695-.354-3.404-.15-5.112.422-3.536 1.452-6.913 2.712-10.228 1.514-3.984 3.379-7.805 5.367-11.57.438-.829 1.016-1.262 1.937-1.258.009 2.652.025 5.303.026 7.955.003 6.961 0 13.92.003 20.881 0 .663.032 1.324.049 1.987v-.001Z"/>
  <path fill="#030303" d="M321.174 214.864c-.763.119-1.526.233-2.288.36-3.673.613-7.159.127-10.407-1.765-.142-.083-.302-.134-.455-.2-.722-.604-1.479-1.17-2.16-1.817-2.342-2.232-3.852-4.977-4.887-8.015-1.013-2.971-1.391-6.04-1.456-9.16-.008-.388.009-.777-.019-1.164-.011-.145-.078-.336-.187-.415-.154-.112-.313.028-.41.158-.298.4-.586.808-.871 1.217-2.279 3.282-4.635 6.504-7.195 9.573-.565.678-1.075 1.415-1.812 1.934a11.56 11.56 0 0 1 .004-3.059c.303-.318.637-.612.904-.958 1.39-1.797 2.819-3.567 4.129-5.421 2.527-3.574 4.981-7.198 7.47-10.799.305-.443.528-.963 1.036-1.265.039.101.081.154.076.202-.027.272-.042.549-.103.815-.868 3.81-1.133 7.668-.874 11.56.193 2.9.885 5.687 2.095 8.333.908 1.985 2.12 3.761 3.745 5.238 2.312 2.101 5.035 3.163 8.155 3.23 2.358.051 4.625-.407 6.836-1.193 2.955-1.052 5.594-2.666 8.073-4.556 3.9-2.973 7.266-6.493 10.422-10.226 4.373-5.17 8.273-10.687 11.991-16.34.392-.596.693-1.266 1.272-1.728a18.926 18.926 0 0 1-.012 3.664c-.492.388-.75.954-1.088 1.456-3.437 5.111-7.049 10.092-11.06 14.774-3.181 3.713-6.585 7.201-10.499 10.161-3.032 2.293-6.301 4.13-9.962 5.222-.159.047-.31.12-.464.182l.001.002Zm-155.095-2.969a5.91 5.91 0 0 1 .005 1.999c-4.897.002-9.795 0-14.693.007-.603 0-1.206.042-1.81.065-1.916-.02-3.834-.048-5.75-.058-1.862-.01-3.726-.01-5.589.003-.544.003-1.089.064-1.633.099-.594-.181-1.206-.106-1.811-.108-4.087-.006-8.174-.002-12.261-.005-.496 0-.994-.008-1.49-.036-.321-.018-.491-.265-.373-.568.623-1.593 1.26-3.181 1.894-4.771a.686.686 0 0 1 .632-.452c.441-.026.883-.03 1.324-.03 3.425-.002 6.849.003 10.273-.005.605-.001 1.217.074 1.812-.108.325.035.65.1.976.1 3.78.007 7.561.005 11.342.001.217 0 .435-.037.653-.057 1.219.021 2.438.031 3.657.068.567.016.941-.237 1.218-.705.283-.477.585-.943.879-1.413 3.293-5.268 6.583-10.536 9.88-15.801.264-.422.576-.813.865-1.218a20 20 0 0 1-.001 3.814c-.288.403-.596.793-.859 1.211-3.032 4.841-6.048 9.692-9.088 14.528-1.171 1.862-.709 1.588-2.87 1.59-9.042.011-18.084.004-27.126.005-.499 0-.998 0-1.497.021-.363.015-.627.193-.742.555-.113.358-.401.68-.222 1.1.099.041.201.122.302.122 14.033.019 28.067.032 42.101.045l.002.002Zm59.993 2.113c-.328-.034-.655-.097-.983-.098-3.812-.007-7.623-.005-11.434 0-.275 0-.55.041-.825.063-.596-.044-1.194-.07-1.787-.14-.251-.03-.353-.255-.26-.482.123-.299.29-.582.454-.864.548-.938 1.104-1.872 1.657-2.808.289-.403.6-.792.863-1.211a13275.97 13275.97 0 0 0 11.688-18.679c.261-.418.47-.87.704-1.307.229-.305.481-.596.683-.919 3.495-5.568 6.985-11.14 10.469-16.715.232-.372.409-.778.612-1.169.779.061 1.393.446 1.928.984-1.303 2.06-2.615 4.115-3.909 6.181a58603.168 58603.168 0 0 0-20.99 33.537c-.255.408-.589.789-.674 1.331.203.065.348.154.493.154 4.324.012 8.647.005 12.97.029.648.003 1-.302 1.313-.81 1.311-2.122 2.644-4.228 3.969-6.341 3.12-4.976 6.235-9.956 9.363-14.927.556-.883 1.055-1.811 1.83-2.538.092 1.201.148 2.401-.044 3.598-.19.269-.394.53-.57.81-2.68 4.263-5.355 8.529-8.032 12.793-1.795 2.859-3.599 5.712-5.374 8.583-.356.578-.771.863-1.469.849-.881-.016-1.771-.111-2.645.096Z"/>
  <path fill="#FFE5D5" d="M218.873 137.205c.353-.614.688-1.239 1.062-1.841 1.559-2.511 3.125-5.017 4.697-7.52.29-.462.617-.901.927-1.349 1.051.019 2.103.051 3.154.053 3.601.008 7.201-.002 10.802.01.749.003.862.119.865.876.012 2.991.011 5.982-.001 8.974-.003.738-.107.813-.901.841-.332.012-.664.004-.996.004-5.982 0-11.965.002-17.947-.001-.554 0-1.107-.029-1.661-.046l-.001-.001Z"/>
  <path fill="#030303" d="M223.039 67.147a3.987 3.987 0 0 1-.004-2.088c8.051 1.759 15.965 4.03 23.863 6.357 1.908.562 3.812 1.139 5.721 1.698.368.107.754.158 1.131.235 1.132.6 2.395.809 3.603 1.174 2.64.8 5.303 1.522 7.958 2.266.477.133.967.218 1.451.325.205.074.408.161.618.22a205.384 205.384 0 0 0 13.394 3.225c1.402.29 2.791.708 4.243.725.65.363 1.39.327 2.092.453 3.586.643 7.199 1.094 10.828 1.415.108.01.22-.018.329-.027 1.916.154 3.83.37 5.751.446 3.299.132 6.601.133 9.901-.01a5.95 5.95 0 0 1 0 2.01c-5.819.233-11.623.066-17.42-.53a160.625 160.625 0 0 1-13.304-1.942c-6.586-1.241-13.088-2.84-19.527-4.686-7.926-2.273-15.83-4.622-23.751-6.912-5.583-1.615-11.19-3.138-16.877-4.354Zm-13.373-.524a5.566 5.566 0 0 1-.001 2.014c-2.31-.278-4.615-.603-6.931-.822-3.198-.303-6.398-.65-9.621-.491-2.899-.221-5.796-.113-8.682.168-.967.094-1.978 0-2.899.435-2.323.177-4.588.62-6.78 1.42-2.874.62-5.499 1.851-8.041 3.28-.569.32-1.189.579-1.609 1.118-1.509.741-2.701 1.894-3.925 3.006-1.19 1.082-2.131 2.387-3.217 3.56a13.657 13.657 0 0 1-.059-3.182c.166-.144.349-.273.497-.434 3.479-3.796 7.716-6.452 12.496-8.274 5.015-1.911 10.239-2.852 15.58-3.101 7.772-.365 15.504.146 23.196 1.305l-.004-.002Z"/>
  <path fill="#030303" d="M181.437 61.759c.6-.037 1.206-.047 1.803-.117 2.898-.34 5.808-.367 8.721-.355.383.002.766-.039 1.149-.06.33.028.66.075.991.082 5.216.103 10.4.597 15.564 1.315.124.67.12 1.341.001 2.011-1.099-.13-2.199-.252-3.297-.392a117.303 117.303 0 0 0-19.068-.883c-4.496.163-8.935.805-13.268 2.044-5.947 1.7-11.326 4.443-15.798 8.803-.116.113-.27.19-.406.282-.139-.883-.261-1.767-.094-2.661 1.256-.963 2.498-1.944 3.771-2.881.788-.58 1.622-1.096 2.436-1.64.156-.046.327-.066.467-.143a41.993 41.993 0 0 1 8.763-3.593c.15-.043.28-.159.42-.241 1.064-.228 2.126-.467 3.193-.68 1.548-.307 3.101-.596 4.652-.891Zm-5.564 70.626c.683.499 1.509.66 2.271.975.389.16.474.379.313.791-.402 1.024-.816 2.045-1.224 3.067-.259.548-.524 1.094-.776 1.645-.332.726-.856.96-1.573.702a36.787 36.787 0 0 1-8.647-4.508 43.356 43.356 0 0 1-5.692-4.812c-.35-.35-.725-.676-1.089-1.015-.285-1.086-.229-2.187-.157-3.289.452.484.912.962 1.355 1.454 3.491 3.873 7.532 7.01 12.291 9.183 2.205 1.007 1.819 1.007 2.768-1.132.045-.1.083-.207.101-.314.04-.239-.033-.436-.263-.545a16.68 16.68 0 0 0-.762-.331c-5.497-2.256-10.042-5.793-13.86-10.308l-1.709-2.018c-.144-1.231-.218-2.464-.097-3.702.521.709 1.042 1.418 1.561 2.127 3.544 4.843 7.887 8.751 13.339 11.351.593.283 1.166.634 1.848.678l.002.001Zm3.598 77.667a4.293 4.293 0 0 1-.009-2.019c7.469.002 14.939.004 22.408.01.552 0 1.105.015 1.654.066.256.024.337.25.286.491-.035.16-.09.32-.163.466-.691 1.386-1.398 2.765-2.075 4.157-.219.45-.525.684-1.03.672-.442-.011-.885.003-1.328.003l-19.752.007a4.297 4.297 0 0 1 .009-2.02l18.799.002c.388 0 .776-.003 1.164-.01.361-.007.641-.148.791-.493.168-.387.503-.725.367-1.201-.119-.04-.223-.103-.328-.103-6.932-.012-13.863-.02-20.796-.027l.003-.001ZM327.307 86.968c-.133-.72-.151-1.438.019-2.156 3.476-1.087 6.593-2.83 9.391-5.151.254-.212.499-.44.713-.691.164-.193.08-.416-.063-.6-.265-.34-.438-.789-.941-.852-.086-.01-.198.092-.283.16-.346.276-.679.567-1.028.839-2.372 1.853-4.947 3.335-7.819 4.275a6.094 6.094 0 0 1 .011-2.151c2.89-1.058 5.45-2.654 7.722-4.722.449-.408.895-.821 1.353-1.22.23-.2.511-.266.719.004a381.101 381.101 0 0 1 2.993 3.965c.2.267.089.516-.121.733a26.206 26.206 0 0 1-3.242 2.831c-2.872 2.111-6.008 3.706-9.425 4.737h.001Z"/>
  <path fill="#FFE5D5" d="M283.741 157.996c-.112.498-.447.873-.722 1.277-2.162 3.171-4.541 6.181-6.889 9.214-.097.126-.239.218-.359.326-.018-3.381-.042-6.761-.049-10.142 0-.531.168-.701.703-.702 2.439-.003 4.877.016 7.316.027Zm31.788.015c-.212.255-.406.526-.636.763a58.4 58.4 0 0 0-6.311 7.702c-.153.224-.359.413-.539.618-.022-2.765-.054-5.531-.06-8.296-.002-.71.136-.835.908-.834 2.213.002 4.425.03 6.638.047Z"/>
  <path fill="#FB4E2B" d="M354.258 179.404c-.579.462-.88 1.133-1.272 1.729-3.718 5.652-7.618 11.17-11.991 16.34-3.156 3.732-6.522 7.253-10.422 10.226-2.479 1.89-5.118 3.504-8.073 4.555-2.211.787-4.478 1.245-6.836 1.194-3.119-.067-5.842-1.129-8.155-3.23-1.625-1.477-2.838-3.254-3.745-5.238a23.679 23.679 0 0 1-2.095-8.333c-.259-3.892.006-7.75.874-11.56.061-.266.076-.543.103-.815.005-.049-.036-.102-.076-.202-.508.302-.73.822-1.036 1.265-2.489 3.6-4.943 7.225-7.47 10.799-1.31 1.853-2.739 3.624-4.129 5.421-.267.345-.601.638-.904.956a8.34 8.34 0 0 1-.001-2.372c.67-.518 1.086-1.25 1.583-1.91 3.502-4.657 6.726-9.509 9.995-14.329.53-.781 1.035-1.578 1.582-2.346 1.579-2.217 2.891-4.571 4.071-7.034 4.111-8.584 10.234-15.509 17.874-21.126 3.592-2.64 7.431-4.848 11.607-6.432 2.707-1.028 5.48-1.8 8.407-1.841 1.054-.014 2.106-.006 3.133.3 2.474.736 3.886 2.537 4.025 5.104.083 1.531-.24 2.978-.836 4.371-.637 1.487-1.486 2.849-2.48 4.123a35.147 35.147 0 0 1-7.031 6.809c-4.6 3.359-9.639 5.9-14.907 8.016a76.976 76.976 0 0 1-6.748 2.358c-.549.164-.996.4-1.291.943-3.232 5.96-6.157 12.052-7.917 18.633-.674 2.52-1.137 5.085-1.097 7.718.014.948.104 1.879.304 2.805.673 3.115 2.697 4.909 5.886 5.177 2.703.227 5.302-.224 7.816-1.228 2.862-1.143 5.407-2.805 7.789-4.735 3.637-2.949 6.801-6.365 9.772-9.965 4.457-5.399 8.421-11.153 12.21-17.03.385-.597.668-1.304 1.466-1.504.099.795.123 1.592.014 2.39l.001-.002Zm-34.597-5.011c.466.22.856-.097 1.249-.236a76.716 76.716 0 0 0 8.855-3.782c3.719-1.867 7.294-3.975 10.571-6.557 2.493-1.965 4.741-4.169 6.611-6.744.849-1.168 1.587-2.401 2.096-3.762.412-1.102.663-2.228.563-3.412-.154-1.825-1.187-2.958-2.988-3.255a5.557 5.557 0 0 0-1.983.049 11.804 11.804 0 0 0-3.272 1.17c-1.478.78-2.813 1.763-4.087 2.837-2.852 2.407-5.273 5.216-7.572 8.138-3.71 4.712-6.843 9.808-9.918 14.942-.11.183-.22.371-.125.612ZM223.039 67.147c5.687 1.216 11.294 2.739 16.877 4.353 7.921 2.291 15.825 4.64 23.751 6.913 6.44 1.846 12.941 3.445 19.527 4.686 4.408.83 8.84 1.482 13.304 1.942 5.797.596 11.601.763 17.42.53a5.83 5.83 0 0 1-.005 1.882c-2.322.211-4.651.123-6.978.148-1.801.019-1.478-.205-2.49 1.38-11.098 17.37-22.191 34.742-33.284 52.114-5.517 8.64-11.03 17.281-16.55 25.919-.297.464-.638.901-.958 1.351-.235-.297-.496-.577-.702-.894a19.46 19.46 0 0 0-6.308-6.125c-.231-.139-.436-.322-.652-.484 2.192-3.532 4.372-7.071 6.577-10.595 12.94-20.682 25.886-41.359 38.818-62.044.335-.536.898-.995.777-1.743-.566-.272-1.191-.21-1.787-.297-9.836-1.424-19.481-3.718-29.048-6.365-2.082-.577-4.15-1.21-6.239-1.76-1.598-.422-1.29-.73-2.324.924-2.469 3.95-4.934 7.9-7.401 11.85-15.8 25.301-31.599 50.603-47.402 75.902-.263.419-.572.809-.86 1.214-.032-.715-.087-1.429-.092-2.144-.012-2.043-.003-4.086-.007-6.129 0-.385-.01-.773-.048-1.156-.03-.303-.224-.51-.531-.537-.384-.033-.772-.031-1.158-.031-1.933-.003-3.866.004-5.799-.005-.55-.003-1.1-.047-1.65-.071 1.274-2.077 2.534-4.163 3.825-6.229 15.832-25.337 31.669-50.67 47.496-76.008.375-.6.875-1.142.995-1.88-.523-.597-1.301-.571-1.973-.76-4.48-1.256-8.977-2.453-13.514-3.49-.539-.124-1.089-.199-1.633-.296a4.042 4.042 0 0 1 .025-2.064h.001Zm52.613 146.129c-1.353.302-2.702.581-4.108.545-3.229-.081-5.614-1.521-7.143-4.354-1.045-1.936-1.5-4.044-1.675-6.218-.378-4.681.467-9.161 2.215-13.496 1.542-3.827 3.609-7.362 5.908-10.771 2.234-3.314 4.737-6.428 7.157-9.604 2.285-2.999 4.635-5.95 6.75-9.076 1.058-1.562 2.072-3.151 2.905-4.848.489-.996.902-2.02 1.176-3.103a7.032 7.032 0 0 0 .195-2.144c-.097-1.662-.991-2.686-2.629-2.94a9.062 9.062 0 0 0-3.145.086c-1.702.335-3.292.965-4.823 1.766-2.522 1.318-4.792 2.997-6.957 4.826-3.782 3.196-7.175 6.778-10.381 10.538-1.835 2.152-3.588 4.373-5.382 6.559-.174.212-.377.4-.566.599-.338-.606-.66-1.218-.803-1.906 1.877-2.26 3.722-4.549 5.638-6.776 3.517-4.083 7.257-7.946 11.468-11.329 2.342-1.881 4.802-3.582 7.54-4.845 1.978-.912 4.02-1.58 6.225-1.662 3.897-.144 6.264 1.494 7.517 5.215.589 1.753.804 3.569.895 5.399.259 5.217-.863 10.129-3.315 14.746-1.75 3.292-3.843 6.358-6.071 9.336-3.324 4.441-6.669 8.866-9.979 13.317a85.544 85.544 0 0 0-4.306 6.326c-.754 1.23-1.466 2.481-2.06 3.798a13.435 13.435 0 0 0-1.043 3.495c-.148.958-.01 1.892.324 2.781.554 1.478 1.7 2.278 3.208 2.608 1.441.315 2.867.152 4.289-.145.324-.067.646-.151.968-.228.094.502.107 1.003.013 1.505h-.005Zm-31.446-25.997c-.775.727-1.274 1.655-1.83 2.538-3.128 4.971-6.243 9.951-9.363 14.927-1.325 2.113-2.658 4.219-3.969 6.341-.313.508-.665.813-1.313.81-4.323-.024-8.646-.017-12.97-.029-.144 0-.289-.088-.493-.154.085-.542.419-.923.674-1.331 6.993-11.181 13.989-22.36 20.99-33.537 1.294-2.066 2.606-4.121 3.909-6.181 1.217.648 1.966 1.724 2.62 2.883.879 1.558 1.341 3.264 1.54 5.014.329 2.895.406 5.807.205 8.719Zm83.09-104.487c2.872-.94 5.447-2.422 7.819-4.275.349-.272.682-.563 1.028-.84.085-.067.197-.17.283-.159.503.063.676.513.941.852.143.184.227.407.063.6-.214.25-.459.48-.713.69-2.798 2.323-5.915 4.066-9.391 5.153-.137-.672-.125-1.347-.03-2.023v.002Zm-130.733 86.046c-.241.435-.461.883-.725 1.304a30638.513 30638.513 0 0 1-15.599 24.976c-.234.372-.512.714-.771 1.071-.027-.385-.077-.771-.077-1.156-.005-7.757-.005-15.514-.002-23.27 0-.274.048-.548.074-.822.586-.619.989-1.355 1.364-2.11a311.524 311.524 0 0 1 15.736.005v.002Zm-30.484 43.057c-14.033-.014-28.067-.027-42.101-.045-.101 0-.202-.081-.301-.123-.179-.418.108-.741.221-1.099.115-.362.378-.54.742-.555.499-.021.999-.021 1.497-.021 9.043-.001 18.084.005 27.126-.005 2.162-.003 1.701.271 2.871-1.591 3.039-4.836 6.056-9.686 9.088-14.527.262-.419.571-.808.857-1.212.025.33.069.659.07.989.004 4.532.004 9.063 0 13.595 0 .275-.04.549-.062.824-.978.504-1.959 1.004-2.931 1.518-.073.039-.092.178-.191.386 1.07.046 2.094.01 3.114.015a5.53 5.53 0 0 1 0 1.851Zm13.392-1.843c6.932.007 13.863.016 20.796.028.104 0 .209.064.328.103.136.475-.199.814-.367 1.201-.15.345-.432.486-.792.493-.388.007-.776.01-1.164.01l-18.799-.002a4.785 4.785 0 0 1 0-1.832l-.002-.001Z"/>
  <path fill="#030303" d="M166.079 210.044c-1.022-.005-2.045.03-3.115-.015.099-.209.119-.348.191-.387.973-.514 1.953-1.014 2.931-1.518.107.64.106 1.28-.007 1.92Zm14.748-41.213c-.375.755-.778 1.491-1.364 2.11-.033-.492-.092-.983-.092-1.475 0-.614.117-.709.806-.723.216-.005.433.057.65.088Z"/>
  <path fill="#FB4E2B" d="M157.829 74.49c.137-.094.291-.169.406-.283 4.472-4.36 9.851-7.103 15.798-8.803 4.333-1.239 8.772-1.881 13.268-2.044 6.377-.23 12.735.077 19.068.883 1.098.14 2.198.262 3.297.392a6 6 0 0 1 0 1.988c-7.691-1.159-15.423-1.67-23.195-1.305-5.341.25-10.565 1.19-15.58 3.101-4.781 1.822-9.018 4.478-12.497 8.274-.147.162-.33.29-.497.435a11.585 11.585 0 0 1-.07-2.639h.002Zm1.392 47.441 1.709 2.018c3.818 4.514 8.363 8.052 13.86 10.308.257.105.511.214.762.331.23.108.303.306.263.545a1.308 1.308 0 0 1-.101.314c-.95 2.138-.563 2.138-2.768 1.131-4.758-2.172-8.8-5.309-12.291-9.182-.444-.492-.903-.969-1.355-1.455a23.453 23.453 0 0 1-.079-4.01Z"/>
  <path fill="#FFE5D5" d="m285.095 94.3-.041-6.875c1.304.147 2.606.305 3.865.648 0 .11.022.178-.003.219-1.211 2.042-2.382 4.11-3.821 6.007v.002Z"/>
  <path fill="#030303" d="M319.661 174.393c-.095-.241.015-.429.125-.612 3.075-5.134 6.208-10.23 9.918-14.942 2.299-2.922 4.72-5.731 7.572-8.138 1.274-1.074 2.609-2.057 4.087-2.837a11.804 11.804 0 0 1 3.272-1.17 5.557 5.557 0 0 1 1.983-.049c1.801.297 2.834 1.43 2.988 3.255.1 1.184-.151 2.31-.563 3.412-.509 1.361-1.246 2.593-2.096 3.762-1.87 2.575-4.118 4.779-6.611 6.744-3.277 2.582-6.852 4.69-10.571 6.557a76.716 76.716 0 0 1-8.855 3.782c-.394.139-.783.457-1.249.236Zm8.429-5.557c.36-.135.736-.237 1.076-.41 3.04-1.551 5.986-3.263 8.738-5.29.352-.259.66-.576.987-.866a26.754 26.754 0 0 0 7.504-8.058 9.4 9.4 0 0 0 1.066-2.596 4.339 4.339 0 0 0 .089-1.806c-.103-.605-.47-.985-1.069-1.127-.547-.131-1.094-.098-1.641.021-1.204.258-2.312.752-3.341 1.409-3.246 2.072-5.961 4.716-8.298 7.764-.305.316-.634.612-.912.951-2.377 2.91-4.522 5.988-6.568 9.137-.148.229-.242.493-.362.741-.452.471-.802 1-1.05 1.798 1.462-.343 2.642-.955 3.781-1.668Z"/>
  <path fill="#FFE5D5" d="M333.201 157.877c1.385.025 2.77.052 4.154.078.278.005.555.005.832.016.409.016.593.268.602.645.019.776.007 1.553.024 2.329.01.442.052.883.08 1.325-.329.291-.637.608-.989.866-2.752 2.027-5.698 3.739-8.738 5.29-.34.173-.716.275-1.076.41l-2.73-.129c.119-.248.213-.512.362-.741 2.046-3.149 4.191-6.228 6.568-9.137.277-.339.606-.635.912-.952h-.001Z"/>
</svg>
