<svg xmlns="http://www.w3.org/2000/svg" width="605" height="192" fill="none" viewBox="0 0 605 192">
  <path fill="#FB4E2B" d="M34.37 143.35c-12.75 0-19.72-11.22-19.72-27.54s6.12-34.34 15.64-51.34C14.65 62.6.03 55.97.03 41.69c0-13.77 13.6-24.48 44.71-24.48h26.01C83.84 7.18 97.44.89 109.17.89c7.14 0 10.54 4.08 10.54 10.2 0 1.87-.34 3.91-1.02 6.12h13.09l-.85 1.7h-12.75c-6.97 18.36-35.19 44.88-74.63 46.24-11.56 20.4-19.38 41.99-19.38 57.63 0 11.9 4.25 18.19 12.07 18.19 9.18 0 21.59-8.5 36.89-30.26l5.1-7.31c.51-.34 1.19-.34 1.7 0l-5.1 7.48c-15.3 22.44-28.39 32.47-40.46 32.47ZM1.9 41.52c0 13.43 13.94 19.72 29.41 21.42 9.86-17 23.29-32.64 37.23-44.03H44.57c-30.09 0-42.67 9.86-42.67 22.61Zm42.67 21.76c38.25-1.7 64.77-27.2 71.57-44.37h-37.4C66.5 30.3 54.26 46.45 44.57 63.28Zm36.04-46.07h36.04c.85-2.21 1.19-4.25 1.19-6.12 0-5.1-2.21-8.5-8.5-8.5-8.67 0-18.7 5.61-28.73 14.62Z"/>
  <path fill="#FB4E2B" d="M86.458 135.19c-7.99 0-11.05-9.35-11.05-15.98 0-23.97 20.23-44.54 37.91-44.54h.34c2.21 0 4.08.51 5.44 1.36l.51.17h19.89c.17.51.34 1.02-.51 1.53h-18.02c1.36 1.87 2.04 4.59 2.04 7.99 0 7.31-3.06 16.49-8.33 25.33-7.31 12.24-19.04 24.14-28.22 24.14Zm0-1.53c8.33 0 18.19-11.9 25.33-24.31 5.27-9.18 9.18-18.36 9.18-25.16 0-2.89-.68-5.1-2.04-6.46h-8.33c-5.61 3.4-12.75 11.73-18.7 21.08-6.12 9.86-10.88 20.91-10.88 28.22 0 4.08 1.36 6.63 5.44 6.63Z"/>
  <path fill="#FB4E2B" d="M166.594 135.7c-6.46 0-8.16-6.12-8.16-11.39 0-7.14 3.23-14.45 10.37-23.8l5.61-7.31c5.1-6.63 7.48-10.71 7.48-13.6 0-1.87-.85-3.06-3.4-3.06-8.5 0-21.08 12.75-35.36 33.83l-.85 1.36-14.45 22.27h-11.9l24.65-38.93c3.74-5.78 5.95-9.86 5.95-12.92 0-2.89-1.19-4.42-5.61-4.42h-6.97c.17-.68.51-1.19.85-1.53h6.8c5.27 0 7.65 2.38 7.65 8.67v12.58h1.19c11.05-14.28 20.91-22.78 28.56-22.78 5.1 0 6.97 4.25 6.97 10.71 0 6.46-1.87 11.56-8.67 20.57l-5.27 6.97c-7.31 9.69-9.86 13.94-9.86 17.17 0 2.72 1.7 4.25 4.59 4.25 8.16 0 15.13-10.03 24.65-24.14l4.59-6.8c.68-.51 1.36-.51 1.7 0l-4.59 6.8c-8.67 12.92-17.17 25.5-26.52 25.5Z"/>
  <path fill="#FB4E2B" d="M127.497 186.53c5.78.68 7.82 1.02 13.26 1.02 13.26 0 15.64-2.55 41.48-46.07l37.91-63.75h-14.45c.17-.51.34-1.02.85-1.53h14.62l13.09-22.1c20.23-33.83 35.02-45.73 44.37-45.73 4.08 0 5.61 2.89 5.61 5.95 0 11.39-14.96 32.64-52.36 61.88h23.29c0 .51-.34 1.02-.85 1.53h-.85c-22.44 0-29.75 15.3-40.29 33.15l-12.75 21.42c-13.77 23.12-28.39 44.88-48.11 54.74-8.5 4.08-17.17 4.76-28.05 4.76l3.23-5.27Zm91.46-88.91h.51c6.46-9.86 12.92-17 23.46-19.89h-12.07l-11.9 19.89Zm14.62-24.31c35.53-28.39 49.13-49.98 49.13-59.5 0-2.72-1.36-4.08-3.74-4.08-7.31 0-15.3 13.26-34.51 45.39l-10.88 18.19Z"/>
  <path fill="#FB4E2B" d="M247.465 135.19c-6.97 0-8.16-6.97-8.16-12.07 0-10.88 4.59-19.21 11.73-30.6l8.67-13.77-.34-1.02h-7.14c0-.51.17-1.02.85-1.53h19.04l.34 1.7-13.6 21.42c-14.79 23.12-16.49 26.18-16.49 29.92 0 2.89 1.87 4.59 5.1 4.59 7.82 0 13.94-9.35 21.93-21.76l5.61-8.67c.68-.34 1.36-.34 1.7 0l-5.95 9.18c-7.48 11.56-14.62 22.61-23.29 22.61Zm29.07-88.23 8.33-12.41h10.2l-8.33 12.41h-10.2Z"/>
  <path fill="#FB4E2B" d="M289.476 135.19c-6.46 0-8.33-5.44-7.99-11.56.34-6.46 3.57-13.43 11.73-23.46l3.06-3.74c5.95-7.14 12.07-13.94 12.07-17 0-1.02-.51-1.87-2.38-1.87h-12.07l-17.17 25.84c-.85.68-1.87.51-1.7 0l17.51-26.35-2.04-9.18h11.39l-5.95 8.33h10.2c3.57 0 5.44 2.89 5.44 7.48 0 6.8-4.25 14.28-10.2 21.59l-4.42 5.44c-10.54 12.92-12.24 15.3-12.41 18.53-.17 3.06 1.53 4.59 5.1 4.59 8.33 0 15.81-9.69 26.35-24.14l4.59-6.29c.68-.34 1.36-.34 1.7 0l-4.59 6.29c-10.2 14.11-18.87 25.5-28.22 25.5Z"/>
  <path fill="#FB4E2B" d="M335.32 95.07c3.74-5.78 5.951-9.86 5.951-12.92 0-2.89-1.191-4.42-5.611-4.42h-6.97c.17-.68.51-1.19.85-1.53h6.8c5.27 0 7.651 2.38 7.651 8.67v12.58h1.19C356.061 83 364.73 74.67 372.38 74.67c4.93 0 6.46 3.74 6.46 8.67 0 3.91-1.529 9.69-3.569 14.28h1.359c10.54-14.28 20.061-22.95 27.371-22.95 5.1 0 6.97 4.25 6.97 10.71 0 6.46-1.87 11.56-8.67 20.57l-5.271 6.97c-7.31 9.69-9.859 13.94-9.859 17.17 0 2.72 1.699 4.25 4.589 4.25 8.16 0 15.13-10.03 24.65-24.14l4.59-6.8c.68-.51 1.36-.51 1.701 0l-4.59 6.8c-8.67 12.92-17.17 25.5-26.52 25.5-6.46 0-8.16-6.12-8.16-11.39 0-7.14 3.23-14.45 10.37-23.8l5.609-7.31c5.1-6.63 7.481-10.71 7.481-13.6 0-2.04-1.021-3.06-3.571-3.06-8.33 0-20.57 13.26-34.51 35.36L355.211 134H343.31l16.491-26.18c7.99-12.58 15.47-24.14 15.47-28.56 0-1.87-1.02-2.72-3.06-2.72-8.16 0-18.191 10.88-32.301 30.6l-2.889 4.59L322.57 134h-11.899l24.649-38.93Z"/>
  <path fill="#FB4E2B" d="M430.644 135.36c-8.16 0-12.75-7.99-12.75-17.17 0-6.97 2.04-14.45 6.46-21.59 8.16-13.26 22.78-21.93 31.79-21.93 4.42 0 5.95 2.55 5.95 5.27 0 3.57-2.72 7.48-6.8 11.22-5.78 5.1-14.79 9.18-22.44 11.39-4.25 7.65-8.33 16.83-8.33 23.8 0 4.42 1.7 7.31 6.63 7.31 8.67 0 18.53-7.82 32.81-30.26.68-.68 1.7-.68 1.7 0-14.96 23.63-25.5 31.96-35.02 31.96Zm2.89-34.34c7.14-2.38 15.3-6.46 20.57-11.22 3.91-3.57 6.46-7.31 6.46-10.37 0-2.04-1.02-3.4-3.4-3.4-5.78 0-14.11 8.84-22.44 23.12l-1.19 1.87Z"/>
  <path fill="#FB4E2B" d="M502.202 135.19c-6.29 0-8.84-4.93-8.84-13.26 0-3.23.34-6.63 1.36-10.03h-1.02c-10.88 16.15-18.36 23.97-24.82 23.97-6.12 0-9.52-7.31-9.52-15.3 0-7.82 3.23-15.98 7.48-22.61 9.01-14.11 23.8-23.29 39.78-23.29 3.06 0 5.44.17 8.33.85l35.53-56.61h-28.56l1.02-1.7h26.01c7.48 0 13.09-1.87 17.34-7.65h2.21l-57.29 91.46c-8.33 13.43-13.94 21.93-13.94 27.54 0 3.23 1.19 5.27 4.93 5.27 7.99 0 15.81-9.18 24.48-22.1l5.61-8.33c.68-.34 1.36-.34 1.7 0l-5.95 8.84c-8.5 12.58-16.66 22.95-25.84 22.95Zm-37.4-6.12c0 3.23 1.7 5.27 4.42 5.27 5.44 0 13.09-7.82 24.14-24.99l11.9-18.53 8.33-13.26c-1.7-1.02-3.91-1.53-6.97-1.53-11.22 0-19.21 8.84-29.07 23.63-7.48 11.05-12.75 22.44-12.75 29.41Zm84.15-29.58 44.37-82.28h11.39l-54.4 82.28h-1.36ZM527.192 134l7.14-11.39h9.18l-7.14 11.39h-9.18Z"/>
</svg>
